<svg xmlns="http://www.w3.org/2000/svg" viewBox="0 0 48 48"><path d="M41 0H11a1 1 0 0 0-1 1v3H7a1 1 0 0 0-1 1v42a1 1 0 0 0 1 1h30a1 1 0 0 0 1-1v-3h3a1 1 0 0 0 1-1V1a1 1 0 0 0-1-1zm-5 46H8V6h20v7a1 1 0 0 0 1 1h7zM30 7.41 34.59 12H30zM40 42h-2c0-31 .14-29.28-.29-29.71C29.08 3.66 29.61 4 29.06 4H12V2h28z"/><path d="M32 22H12a1 1 0 0 0 0 2h20a1 1 0 0 0 0-2zM32 17H12a1 1 0 0 0 0 2h20a1 1 0 0 0 0-2zM32 27H12a1 1 0 0 0 0 2h20a1 1 0 0 0 0-2zM32 32H12a1 1 0 0 0 0 2h20a1 1 0 0 0 0-2zM22 37H12a1 1 0 0 0 0 2h10a1 1 0 0 0 0-2z"/></svg>
